<svg width="88" height="101" viewBox="0 0 88 101" fill="none" xmlns="http://www.w3.org/2000/svg">
<path d="M68.128 0.199993C69.952 0.199993 72.4 1.01599 75.472 2.648C78.64 4.28 81.376 6.2 83.68 8.408C86.08 10.616 87.28 12.536 87.28 14.168C87.28 15.032 86.368 18.872 84.544 25.688C81.184 37.784 78.688 48.344 77.056 57.368C76.096 63.032 75.088 70.472 74.032 79.688C73.072 87.56 72.208 93.08 71.44 96.248C70.768 99.416 69.664 101 68.128 101C65.344 101 62.08 99.848 58.336 97.544C54.688 95.144 51.52 92.216 48.832 88.76C47.392 86.84 45.376 83.096 42.784 77.528C40.192 71.96 37.648 65.72 35.152 58.808C32.752 51.8 30.928 45.272 29.68 39.224L28.672 57.368C27.712 63.032 26.704 70.472 25.648 79.688C24.688 87.56 23.824 93.08 23.056 96.248C22.384 99.416 21.28 101 19.744 101C17.536 101 14.896 100.232 11.824 98.696C8.848 97.064 6.208 95.144 3.904 92.936C1.696 90.728 0.592 88.904 0.592 87.464C0.496 85.928 0.928 82.712 1.888 77.816C2.944 72.824 3.616 69.608 3.904 68.168C4.288 66.248 5.008 62.744 6.064 57.656C7.12 52.472 7.984 47.672 8.656 43.256L9.808 36.488C11.632 25.736 13.312 17 14.848 10.28C16.48 3.55999 18.112 0.199993 19.744 0.199993C21.376 0.199993 23.584 0.919992 26.368 2.35999C29.248 3.704 31.84 5.384 34.144 7.39999C36.544 9.416 38.08 11.336 38.752 13.16C43.264 25.256 48.784 41.576 55.312 62.12L57.04 43.256L58.192 36.488C60.016 25.736 61.696 17 63.232 10.28C64.864 3.55999 66.496 0.199993 68.128 0.199993Z" fill="#6366F1"/>
</svg>
